<?xml version="1.0" standalone="no"?>
<!DOCTYPE svg PUBLIC "-//W3C//DTD SVG 20010904//EN"
 "http://www.w3.org/TR/2001/REC-SVG-20010904/DTD/svg10.dtd">
<svg version="1.0" xmlns="http://www.w3.org/2000/svg"
 width="720.000000pt" height="960.000000pt" viewBox="0 0 720.000000 960.000000"
 preserveAspectRatio="xMidYMid meet">
<metadata>
Created by potrace 1.11, written by Peter Selinger 2001-2013
</metadata>
<g transform="translate(0.000000,960.000000) scale(0.100000,-0.100000)"
fill="#000000" stroke="none">
<path d="M4895 9590 c-3 -6 -19 -10 -35 -10 -35 0 -62 -9 -55 -20 2 -4 -23
-10 -57 -14 -33 -3 -66 -10 -72 -14 -6 -5 -38 -14 -71 -21 -33 -7 -89 -22
-125 -33 -36 -11 -99 -29 -140 -39 -93 -24 -168 -58 -152 -68 7 -4 -9 -8 -35
-8 -81 -2 -161 -46 -149 -81 6 -16 5 -16 -8 1 -13 17 -46 24 -46 9 0 -5 -11
-15 -25 -22 -27 -14 -35 -36 -10 -26 11 4 15 0 13 -11 -4 -23 -36 -55 -48 -48
-6 4 -10 -3 -10 -14 0 -12 5 -21 11 -21 15 0 7 -42 -11 -50 -8 -5 -42 -16 -75
-26 -33 -10 -64 -21 -69 -26 -5 -4 -18 -2 -28 3 -25 13 -35 4 -19 -15 7 -8 10
-20 6 -26 -11 -18 -23 -11 -30 20 -4 16 -11 32 -16 35 -12 8 -12 -28 0 -41 5
-5 13 -25 18 -44 6 -23 16 -36 29 -38 40 -6 81 -36 102 -73 32 -55 29 -79 -8
-79 -17 0 -33 6 -36 14 -5 12 -8 12 -23 -2 -58 -55 -74 -65 -92 -54 -21 13
-49 6 -49 -13 0 -14 -58 -26 -66 -14 -5 9 -80 -27 -90 -42 -3 -5 -18 -9 -33
-9 -15 0 -32 -5 -39 -12 -16 -16 -42 -19 -42 -5 0 7 -5 5 -10 -3 -5 -8 -10
-12 -10 -8 0 12 -63 -13 -97 -38 -38 -29 -44 -29 -69 -6 -10 9 -32 18 -48 19
-16 0 -24 -2 -17 -6 16 -10 11 -33 -11 -49 -12 -9 -24 -9 -43 -2 -21 8 -27 7
-31 -8 -3 -9 -9 -24 -14 -33 -5 -9 -6 -26 -3 -38 3 -14 0 -23 -11 -27 -11 -4
-14 -13 -10 -30 4 -17 2 -24 -8 -24 -18 0 -18 -91 1 -114 12 -14 12 -21 0 -44
-23 -46 -41 -62 -71 -62 -15 0 -27 -3 -27 -7 4 -25 -3 -43 -16 -43 -11 0 -15
-11 -15 -41 0 -34 -2 -39 -14 -30 -11 9 -14 8 -12 -6 1 -13 -8 -17 -33 -19
-34 -2 -61 -24 -61 -51 0 -7 -6 -10 -14 -7 -8 3 -17 1 -21 -5 -3 -6 -19 -11
-36 -11 -26 0 -29 -3 -29 -30 0 -23 -4 -30 -20 -30 -12 0 -20 -7 -20 -16 0 -9
-9 -27 -20 -41 -11 -14 -20 -21 -20 -14 0 6 -7 11 -16 11 -13 0 -15 -7 -11
-36 5 -30 4 -34 -8 -24 -15 12 -35 6 -35 -11 0 -6 4 -7 10 -4 6 4 7 -2 1 -16
-13 -37 -34 -37 -26 0 8 35 -3 61 -16 40 -6 -10 -9 -11 -9 -1 0 6 -9 12 -20
12 -11 0 -20 -7 -20 -15 0 -8 -14 -17 -35 -21 -28 -5 -35 -11 -35 -30 0 -13 5
-24 10 -24 6 0 10 -7 10 -15 0 -11 -5 -12 -25 -5 -16 6 -25 6 -25 0 0 -6 5
-10 10 -10 6 0 10 -5 10 -12 0 -6 -10 -2 -23 10 -22 21 -23 21 -35 2 -7 -11
-19 -20 -28 -20 -11 0 -15 -6 -11 -20 3 -11 1 -20 -4 -20 -5 0 -9 6 -9 13 -1
6 -7 -1 -14 -18 -8 -20 -15 -25 -20 -17 -4 7 -3 18 2 25 17 20 9 60 -12 63
-25 3 -37 23 -33 51 2 12 1 27 -4 34 -13 22 -36 1 -42 -40 -3 -22 -12 -48 -21
-56 -9 -9 -16 -25 -16 -35 0 -10 -9 -21 -19 -25 -13 -4 -18 -13 -16 -25 5 -24
-31 -70 -53 -69 -10 0 -12 3 -5 6 10 3 10 9 0 25 -9 16 -9 22 1 25 6 3 12 11
12 20 0 12 -3 12 -16 -2 -11 -10 -19 -13 -23 -6 -4 5 -23 11 -44 13 -25 1 -39
8 -43 20 -6 21 -13 22 -36 4 -10 -7 -18 -26 -18 -42 0 -23 -7 -32 -31 -43 -16
-7 -28 -16 -25 -19 4 -3 -2 -14 -11 -25 -13 -15 -15 -21 -5 -24 14 -5 16 -33
2 -33 -5 0 -10 7 -10 15 0 22 -6 19 -57 -29 -26 -25 -42 -49 -39 -55 4 -6 11
-9 16 -6 9 5 -3 -45 -14 -64 -4 -5 -8 -56 -10 -112 -2 -65 -7 -104 -15 -107
-17 -6 -13 -30 6 -35 17 -4 17 -5 1 -6 -10 -1 -21 -12 -24 -28 -11 -41 -26
-54 -41 -34 -12 14 -14 14 -31 -7 -11 -14 -24 -21 -34 -17 -11 4 -17 -1 -20
-20 -3 -14 -2 -28 2 -30 16 -10 17 -60 2 -104 -8 -25 -16 -52 -18 -58 -2 -7
-8 -13 -13 -13 -16 0 -24 46 -13 67 7 12 7 25 0 37 -5 10 -8 26 -5 37 3 10 -3
40 -12 66 -20 58 -50 66 -65 18 -5 -16 -20 -54 -34 -84 -17 -39 -21 -56 -12
-61 8 -5 4 -9 -10 -13 -17 -4 -20 -11 -17 -43 3 -32 -1 -43 -30 -73 -29 -30
-36 -33 -56 -24 -21 10 -25 8 -34 -18 -6 -16 -24 -34 -40 -41 -37 -17 -44 -28
-37 -58 4 -20 3 -23 -7 -12 -17 16 -40 15 -33 -2 4 -10 -2 -12 -20 -9 -15 3
-33 0 -42 -8 -18 -15 -41 -19 -156 -25 -55 -4 -88 -2 -88 4 0 6 -19 13 -42 17
-24 4 -46 12 -49 18 -4 5 -29 12 -56 14 -37 4 -52 1 -62 -11 -11 -13 -11 -16
0 -16 19 0 159 -71 159 -81 0 -5 8 -9 18 -9 10 0 43 -12 73 -27 30 -15 63 -30
73 -33 32 -9 -4 -35 -70 -49 -54 -12 -115 -41 -87 -41 7 0 17 -9 23 -20 10
-19 8 -20 -52 -14 -123 12 -165 2 -131 -31 13 -13 14 -20 5 -23 -6 -2 -11 -16
-11 -30 2 -24 2 -24 6 -4 6 32 23 27 23 -8 0 -20 -5 -30 -15 -30 -19 0 -20
-24 -1 -39 8 -7 12 -25 11 -44 -2 -17 -3 -42 -4 -54 -2 -42 -19 -24 -26 28 -6
42 -10 49 -24 43 -9 -4 -26 -6 -38 -5 -18 0 -23 -5 -23 -23 0 -14 -6 -26 -12
-29 -10 -3 -10 -7 -1 -18 7 -8 10 -25 6 -37 -3 -14 0 -24 10 -28 9 -3 19 -19
22 -35 4 -16 13 -29 21 -29 8 0 14 -5 14 -11 0 -6 9 -8 20 -4 11 3 20 2 20 -2
0 -10 -21 -33 -30 -33 -13 0 -81 70 -76 78 3 5 -4 19 -15 31 -11 12 -17 25
-14 30 3 5 -3 16 -13 23 -10 7 -28 35 -40 61 -12 26 -30 50 -40 53 -9 3 -24 9
-32 13 -23 11 -47 2 -53 -20 -3 -10 -1 -19 4 -19 18 0 4 -34 -24 -62 -32 -32
-55 -35 -98 -13 l-30 16 3 -68 c3 -64 4 -68 28 -71 36 -5 50 -20 50 -54 0 -20
4 -27 13 -22 6 4 9 4 5 -1 -4 -4 -3 -15 2 -25 10 -19 -8 -41 -42 -53 -18 -6
-21 -19 -19 -67 2 -23 1 -24 -13 -7 -12 16 -14 16 -20 1 -8 -20 -8 -94 0 -94
3 0 18 9 33 19 15 11 39 23 54 26 20 5 27 13 27 31 0 22 25 44 49 44 6 0 15
-9 21 -20 13 -24 -2 -76 -33 -123 l-19 -27 31 -6 c33 -7 52 -23 29 -25 -56 -3
-154 4 -156 12 -2 5 -12 9 -23 9 -18 0 -19 -8 -19 -109 l0 -108 30 -6 c42 -9
42 -43 0 -52 l-30 -7 0 -124 c0 -68 2 -124 4 -124 2 0 34 16 71 36 48 24 76
33 93 29 15 -4 21 -2 17 5 -4 6 5 10 21 10 22 0 25 -2 14 -15 -7 -8 -18 -15
-25 -15 -8 0 -15 -4 -17 -8 -5 -14 -96 -62 -116 -62 -10 0 -22 -3 -26 -7 -4
-5 -13 -8 -19 -8 -9 0 -13 -76 -15 -283 l-2 -284 32 24 c48 34 89 54 125 62
28 6 37 3 62 -23 25 -26 28 -34 21 -64 -4 -20 -12 -41 -19 -49 -6 -7 -22 -27
-36 -45 -41 -51 -115 -95 -152 -91 l-33 4 0 -823 c0 -748 2 -826 16 -849 14
-21 15 -29 4 -49 -7 -14 -10 -37 -7 -54 4 -18 2 -31 -3 -31 -6 0 -10 -42 -10
-100 l0 -100 38 -1 c20 -1 62 -2 92 -3 l55 -1 0 -52 c0 -45 -3 -54 -27 -67
-34 -21 -38 -20 -38 4 0 18 -7 20 -60 20 l-60 0 0 -90 c0 -72 3 -90 14 -90 8
0 18 4 21 10 11 18 25 10 25 -15 0 -24 -9 -29 -47 -28 -10 1 -13 -25 -13 -97
l0 -97 122 -6 c80 -5 124 -11 130 -19 4 -7 22 -12 40 -10 18 2 28 -1 22 -5
-31 -22 -60 -132 -43 -164 8 -16 -11 -112 -25 -126 -3 -4 -12 -1 -18 5 -16 16
-83 15 -97 -2 -6 -7 -38 -19 -71 -25 l-60 -12 0 -305 c0 -269 2 -304 16 -304
8 0 12 -4 9 -10 -4 -6 8 -10 29 -10 33 0 41 -7 37 -32 0 -5 3 -8 9 -8 13 0 13
-33 -1 -47 -8 -8 -5 -17 10 -32 23 -23 41 -20 41 7 0 10 8 22 18 28 15 10 17
6 20 -30 5 -67 4 -109 -3 -144 -7 -32 -7 -32 -69 -32 -70 0 -108 8 -100 21 3
5 0 9 -5 9 -7 0 -11 -37 -11 -103 0 -101 1 -104 25 -115 14 -7 35 -12 45 -12
11 0 29 -9 40 -20 11 -11 23 -20 28 -20 4 0 8 -12 8 -27 4 -72 26 -105 46 -69
5 9 18 16 28 16 14 0 20 7 20 21 0 44 55 65 87 34 12 -12 18 -13 29 -4 11 9
15 7 21 -7 3 -10 2 -19 -4 -21 -5 -2 -8 -15 -5 -28 l4 -25 833 0 833 0 5 43
c14 104 0 311 -23 342 -4 6 -10 33 -13 60 -6 62 -25 183 -39 255 -6 30 -14 80
-18 110 -23 158 -50 299 -75 380 -20 67 -52 196 -66 270 -6 30 -15 64 -20 75
-5 11 -14 52 -19 90 -6 39 -15 97 -20 130 -5 33 -10 113 -10 177 0 79 -8 164
-26 265 -14 81 -29 173 -34 203 -9 60 -53 200 -76 242 -8 14 -14 31 -14 36 0
6 -19 40 -43 76 -49 74 -135 166 -285 305 -56 52 -102 101 -102 109 0 9 -2 13
-5 10 -9 -9 -85 74 -91 99 -4 13 -10 23 -15 23 -5 0 -9 6 -9 13 0 7 -8 22 -18
33 -9 10 -25 31 -34 45 -15 24 -15 27 0 44 9 10 12 15 6 12 -22 -13 -32 19
-33 107 -1 104 10 155 39 176 11 8 20 23 20 33 0 17 7 28 43 68 9 10 17 23 17
29 0 5 6 13 14 17 7 4 18 18 25 31 6 12 20 22 30 22 11 0 21 7 25 15 3 8 12
15 21 15 17 0 147 67 155 80 7 11 132 51 139 45 2 -3 11 1 20 9 16 14 48 23
111 33 19 3 42 12 51 19 8 8 35 16 60 18 24 3 55 10 70 18 14 7 57 13 100 13
40 0 76 3 79 6 9 11 224 -10 265 -25 22 -8 47 -15 56 -16 9 0 28 -11 43 -25
15 -14 34 -25 42 -25 7 0 14 -7 14 -15 0 -8 5 -15 11 -15 11 0 77 -58 113 -99
12 -14 31 -36 44 -49 14 -14 23 -37 24 -58 1 -19 6 -34 11 -34 13 0 87 -82 87
-97 0 -6 8 -26 17 -45 9 -18 20 -41 25 -51 5 -9 11 -39 14 -65 4 -26 13 -57
21 -70 9 -15 11 -28 5 -35 -14 -18 -8 -83 9 -104 16 -18 22 -70 20 -184 0 -50
2 -57 24 -67 26 -12 34 -47 13 -55 -10 -3 -10 -7 0 -20 8 -9 13 -26 12 -39 -3
-39 -1 -48 14 -48 14 0 22 -55 29 -205 1 -32 8 -56 20 -68 9 -9 17 -25 17 -34
0 -9 8 -25 17 -35 17 -19 16 -19 -12 -16 -25 2 -31 -1 -33 -20 -3 -17 2 -25
17 -29 29 -7 33 -26 37 -146 3 -88 1 -109 -11 -113 -8 -4 -15 -11 -15 -16 0
-6 7 -8 15 -4 8 3 15 0 15 -7 0 -7 9 -1 20 13 l19 25 7 -33 c4 -18 11 -35 15
-38 5 -3 9 -12 9 -20 0 -11 -4 -12 -19 -4 -14 7 -21 6 -24 -3 -3 -6 -6 -1 -6
12 -1 19 -4 22 -13 13 -9 -9 -9 -18 0 -37 7 -14 8 -25 2 -25 -5 0 -7 -7 -4
-15 5 -11 9 -12 19 -2 7 7 12 14 12 17 -1 3 3 6 8 8 6 1 11 -9 13 -23 3 -21
-1 -25 -22 -25 -24 0 -26 -3 -26 -49 0 -31 5 -53 15 -61 13 -11 15 -5 15 45 0
50 2 56 15 45 9 -8 15 -29 15 -56 0 -23 5 -46 10 -49 6 -4 7 -11 4 -17 -11
-18 -5 -91 9 -100 9 -6 9 -10 -2 -17 -12 -8 -13 -12 -1 -26 11 -13 11 -33 1
-113 -6 -53 -10 -115 -7 -137 8 -82 19 -134 27 -129 5 3 9 -4 9 -15 0 -12 5
-21 10 -21 6 0 10 -11 10 -24 0 -14 4 -28 10 -31 6 -4 5 -13 -3 -26 -8 -14 -9
-22 -1 -27 13 -8 16 -112 3 -112 -5 0 -9 -5 -9 -11 0 -17 24 -36 40 -32 12 4
12 3 1 -5 -10 -7 -11 -14 -1 -32 9 -17 9 -25 -4 -39 -10 -11 -16 -36 -16 -69
0 -35 -4 -51 -12 -50 -6 2 -13 -4 -15 -13 -3 -11 5 -19 21 -23 19 -5 26 -13
26 -30 0 -14 7 -31 15 -40 8 -8 15 -19 15 -24 0 -12 -33 -11 -43 2 -5 7 -6 3
-3 -8 8 -23 -13 -188 -25 -200 -5 -6 -9 -22 -9 -37 0 -15 -5 -40 -12 -56 -7
-15 -15 -77 -19 -138 -9 -142 -12 -157 -26 -173 -7 -7 -13 -22 -13 -33 0 -10
-5 -19 -11 -19 -10 0 -9 -20 3 -60 3 -8 3 -12 1 -7 -8 12 -23 8 -23 -7 0 -7
-9 -16 -21 -19 -16 -4 -19 -11 -14 -26 3 -11 1 -29 -5 -41 l-11 -20 1764 0
1765 0 6 23 c3 12 1 24 -4 25 -6 2 -10 15 -10 28 0 31 26 32 50 2 17 -21 17
-25 3 -41 -19 -21 -10 -35 12 -17 12 10 16 9 21 -4 5 -14 41 -16 330 -16 l324
0 0 1694 c0 1334 -3 1696 -13 1699 -9 4 -9 6 1 6 9 1 12 33 12 125 0 110 -2
125 -17 129 -17 4 -17 5 0 6 16 1 17 13 16 115 -1 94 -4 116 -16 120 -14 6
-14 8 1 24 13 15 16 43 16 159 0 104 -3 143 -12 146 -10 4 -10 6 -1 6 10 1 13
248 13 1161 0 638 -2 1160 -5 1160 -3 0 -14 -9 -25 -20 -11 -11 -31 -20 -45
-20 -14 0 -25 -5 -25 -10 0 -6 -9 -20 -20 -32 -11 -12 -20 -30 -20 -40 0 -23
-70 -90 -87 -84 -8 3 -13 -3 -13 -15 0 -15 -5 -19 -15 -15 -8 3 -15 1 -15 -4
0 -6 -6 -10 -14 -10 -8 0 -23 -11 -33 -23 -10 -13 -32 -28 -48 -34 -18 -6 -29
-17 -29 -27 1 -9 -5 -16 -13 -16 -8 0 -11 5 -8 10 4 6 -5 10 -20 10 -19 0 -31
-9 -46 -34 -17 -30 -24 -34 -64 -34 -49 -1 -133 -35 -142 -57 -6 -18 -40 -20
-46 -2 -3 8 -11 6 -28 -8 -34 -28 -69 -47 -69 -36 0 11 -43 23 -50 13 -5 -8
-118 -32 -150 -33 -8 0 -37 4 -64 10 -37 8 -53 8 -63 -1 -10 -8 -16 -9 -21 -1
-4 6 -31 21 -59 34 -29 12 -53 25 -53 28 0 3 -26 7 -58 8 -45 2 -60 6 -71 22
-16 24 -46 29 -37 6 3 -8 1 -15 -4 -15 -5 0 -12 16 -16 35 -5 30 -10 35 -34
35 -16 0 -31 6 -33 13 -4 8 -6 8 -6 0 -1 -6 -19 6 -41 28 -21 21 -48 39 -59
39 -13 0 -23 11 -31 36 -7 20 -22 40 -36 46 -26 12 -30 23 -13 33 6 4 -2 18
-20 34 -17 15 -31 35 -31 44 0 8 -10 17 -22 19 -21 3 -23 7 -42 89 -3 16 -15
29 -27 32 -12 3 -18 10 -15 16 4 5 -3 16 -15 24 -11 8 -20 21 -19 28 4 29 -1
38 -22 41 -12 2 -36 22 -53 45 -16 23 -36 42 -43 42 -6 1 -11 5 -10 10 2 5 -7
19 -20 32 -12 13 -39 42 -60 63 -20 22 -36 43 -34 48 1 4 -16 8 -39 8 -39 0
-41 1 -35 25 5 21 3 25 -17 25 -13 0 -32 9 -42 20 -10 11 -24 20 -32 20 -7 0
-13 7 -13 15 0 8 -7 15 -15 15 -8 0 -28 14 -43 30 -16 17 -34 30 -41 30 -6 0
-11 8 -11 18 0 10 -12 22 -30 29 -17 6 -33 20 -38 30 -11 28 -86 137 -99 146
-20 12 -53 86 -46 103 3 8 2 14 -3 13 -26 -4 -34 4 -34 34 0 21 -9 42 -22 57
-14 14 -21 34 -19 48 1 14 -6 33 -19 47 -18 19 -21 31 -16 59 4 20 3 36 -2 36
-7 0 -41 66 -46 90 -1 3 -10 19 -21 35 -12 17 -27 43 -35 60 -16 31 -33 55
-61 85 -10 10 -20 32 -24 50 -4 17 -22 59 -41 92 -19 33 -34 65 -34 71 0 6 -7
31 -16 55 -14 36 -15 46 -4 67 12 22 11 28 -8 48 -12 13 -22 28 -22 34 0 6
-10 23 -22 39 -30 38 -98 172 -98 194 0 9 -11 29 -25 44 -26 28 -32 46 -16 46
19 0 20 35 5 128 -12 78 -13 105 -4 137 21 69 43 107 100 168 30 33 54 62 53
66 -1 3 19 6 44 6 28 0 48 5 51 13 2 6 8 12 14 12 11 0 69 24 103 43 11 6 36
14 55 18 19 4 49 12 65 17 94 31 136 42 164 42 17 0 31 4 31 8 0 12 353 44
420 39 79 -7 160 -23 195 -39 28 -12 65 -42 65 -53 0 -11 35 -45 47 -45 7 0
13 -6 13 -14 0 -7 7 -19 15 -26 8 -7 15 -19 15 -27 0 -13 7 -24 38 -58 11 -13
16 -13 27 -2 15 15 47 84 65 141 7 22 24 49 37 60 22 19 24 27 18 68 -7 46 -8
47 -43 45 -31 -2 -36 1 -43 26 -16 58 -7 56 -315 56 -172 0 -286 -3 -289 -9z
m-732 -1988 c7 -10 12 -10 23 -1 8 6 14 8 15 3 1 -5 4 2 8 16 4 15 15 26 29
28 22 3 30 -12 12 -23 -20 -12 1 -25 22 -14 17 9 23 8 30 -5 5 -9 18 -16 28
-16 11 0 20 -6 20 -13 0 -18 35 -58 44 -50 3 3 6 -9 7 -28 0 -19 3 -28 6 -22
3 10 8 10 19 -1 8 -8 14 -19 14 -25 0 -6 6 -11 14 -11 8 0 17 -13 21 -30 4
-16 18 -39 32 -49 18 -15 23 -26 18 -42 -5 -14 -4 -19 4 -15 6 4 11 1 11 -7 0
-7 9 -23 20 -34 10 -12 22 -33 25 -46 4 -14 15 -33 26 -43 10 -9 19 -27 19
-40 0 -12 6 -29 14 -37 9 -9 12 -24 9 -37 -4 -15 -1 -26 11 -32 9 -5 16 -21
16 -35 0 -15 7 -34 16 -44 8 -9 17 -38 19 -65 2 -26 10 -51 17 -55 10 -6 10
-15 1 -40 -10 -26 -10 -34 3 -46 8 -8 11 -19 8 -25 -4 -6 4 -31 17 -55 l24
-44 -22 -39 c-28 -48 -28 -53 -3 -45 20 6 20 6 0 -33 -18 -34 -19 -43 -8 -66
9 -21 9 -32 0 -46 -6 -11 -9 -26 -6 -35 3 -8 1 -15 -5 -15 -6 0 -11 -8 -11
-18 0 -10 -7 -27 -15 -39 -12 -17 -22 -21 -44 -17 -19 4 -33 0 -45 -11 -9 -9
-23 -14 -32 -11 -9 3 -12 2 -9 -5 10 -15 -71 -87 -106 -94 -16 -4 -27 -10 -24
-14 8 -14 -19 -61 -32 -56 -7 2 -13 -3 -13 -11 0 -8 5 -12 10 -9 6 3 10 1 10
-4 0 -6 -6 -11 -14 -11 -19 0 -46 -38 -39 -56 3 -8 1 -14 -4 -14 -26 0 -47
-199 -22 -208 5 -2 9 -8 9 -13 0 -6 -4 -7 -10 -4 -5 3 -10 -1 -10 -10 0 -12 5
-15 22 -9 20 6 21 5 9 -9 -7 -9 -11 -24 -7 -32 3 -9 2 -13 -4 -10 -6 3 -10 -1
-10 -10 0 -9 5 -13 10 -10 6 3 13 -2 16 -12 10 -32 27 -63 34 -63 4 0 30 -22
58 -50 28 -27 58 -50 66 -50 8 0 20 -9 26 -20 6 -11 17 -20 25 -20 8 0 35 -11
61 -25 26 -14 53 -25 60 -25 8 0 14 -4 14 -10 0 -5 11 -12 25 -16 14 -3 25
-10 25 -15 0 -5 7 -9 15 -9 8 0 15 -7 15 -15 0 -8 11 -22 24 -30 18 -12 26
-29 31 -66 4 -27 11 -51 15 -54 5 -3 4 -19 -1 -35 -8 -23 -7 -37 5 -61 16 -32
13 -56 -4 -29 -9 14 -18 -26 -18 -84 0 -17 -8 -36 -18 -43 -21 -15 -24 -26
-31 -110 -5 -62 -5 -62 -49 -82 -24 -12 -43 -27 -41 -34 2 -14 -44 -12 -53 4
-4 6 -12 4 -20 -6 -16 -19 -40 -20 -40 0 0 16 -16 20 -24 6 -6 -10 -89 26 -94
40 -2 5 -9 3 -17 -4 -8 -8 -9 -14 -3 -18 6 -4 2 -12 -11 -18 -16 -9 -21 -9
-21 1 0 7 -3 23 -6 36 -5 19 -2 22 20 22 19 0 26 5 26 20 0 11 -6 19 -12 18
-7 -2 -12 5 -12 15 1 10 -5 17 -17 17 -10 0 -19 -4 -19 -10 0 -21 -77 -43
-162 -46 -77 -3 -88 -1 -88 14 0 12 -2 14 -8 4 -7 -9 -14 -8 -32 8 -13 11 -29
20 -36 20 -19 0 -84 32 -80 39 2 3 -37 6 -87 6 -96 0 -132 10 -174 49 -13 12
-23 31 -23 44 0 12 -5 22 -12 22 -9 0 -9 3 0 12 9 9 7 17 -9 34 -20 21 -21 27
-10 66 6 24 14 58 16 76 5 33 6 33 -48 36 -10 1 -21 7 -26 15 -7 11 -11 10
-19 -4 -9 -17 -10 -16 -17 5 -5 17 -3 27 9 35 25 19 19 25 -24 25 -22 0 -40 5
-40 10 0 6 13 8 30 5 29 -5 30 -4 30 29 0 19 6 36 13 39 9 3 9 7 -2 20 -9 12
-11 28 -6 54 4 21 7 40 7 43 0 3 4 10 9 16 5 6 6 19 3 29 -5 13 -9 14 -15 3
-7 -10 -9 -9 -9 5 0 9 5 17 11 17 8 0 8 4 0 13 -8 11 -5 17 14 27 14 7 25 18
25 24 0 13 68 86 79 86 4 0 23 14 41 30 18 17 37 30 42 30 4 0 8 9 8 20 0 13
12 28 30 38 18 10 28 23 25 31 -3 7 2 19 12 26 12 9 16 25 15 60 -1 27 2 51 8
55 5 3 11 17 12 30 2 14 7 28 13 32 6 4 2 14 -10 23 -19 15 -19 16 -1 28 10 7
42 35 71 62 50 48 53 53 54 102 0 37 -3 51 -12 48 -6 -3 -30 11 -52 30 -22 19
-47 41 -57 49 -9 8 -19 12 -22 9 -3 -4 -6 12 -6 35 0 23 -4 42 -10 42 -12 0
-13 53 -1 65 5 6 11 71 13 146 3 124 2 135 -13 126 -12 -8 -14 -18 -9 -43 4
-19 4 -34 -2 -36 -5 -2 -10 -32 -11 -66 -1 -60 -2 -63 -24 -59 -18 3 -23 0
-24 -17 0 -11 -3 -15 -6 -8 -2 6 -11 12 -19 12 -18 0 -18 14 1 30 11 9 14 22
9 43 -3 16 -2 32 4 36 6 3 13 26 16 51 11 78 18 110 26 110 4 0 7 15 5 33 -1
17 2 41 8 52 9 17 8 18 -4 8 -12 -10 -14 -8 -14 10 2 28 34 89 35 65 0 -10 7
-16 20 -15 20 1 29 27 10 27 -5 0 -10 7 -10 15 0 8 6 14 13 13 13 -3 12 52 -2
62 -11 8 -10 104 1 111 8 5 6 15 -5 32 -15 23 -15 26 2 43 13 15 16 28 11 56
-8 39 5 129 21 160 5 10 18 18 28 18 11 0 21 7 25 15 3 8 0 15 -6 15 -6 0 -9
3 -6 6 4 3 15 1 25 -4 14 -8 24 -5 44 12 14 12 23 28 21 35 -3 10 3 12 22 9
15 -3 29 0 33 5 4 7 11 1 17 -13 6 -14 15 -31 19 -38z m-3470 -2610 c8 -10 17
-37 20 -62 l6 -45 -67 1 c-71 0 -112 9 -112 25 0 5 -7 9 -15 9 -10 0 -15 10
-15 29 0 30 14 47 40 49 8 1 33 5 55 10 48 10 69 6 88 -16z m3061 -304 c-3 -4
1 -8 10 -8 8 0 17 -6 20 -12 5 -10 7 -10 12 -1 4 9 11 9 30 -3 22 -15 24 -15
24 1 0 13 6 15 33 10 38 -8 70 -42 64 -67 -3 -10 0 -18 5 -18 6 0 8 -12 5 -30
-4 -17 -2 -30 3 -30 6 0 10 4 10 8 0 12 59 32 76 25 7 -3 17 2 20 11 6 15 9
15 30 1 15 -9 34 -13 49 -9 18 4 27 2 31 -10 4 -11 13 -14 25 -11 16 5 19 1
19 -30 0 -29 -3 -36 -16 -31 -8 3 -13 2 -9 -3 3 -5 19 -12 35 -16 34 -7 37
-16 14 -36 -14 -11 -19 -10 -34 9 -21 26 -38 28 -46 7 -4 -8 -13 -15 -21 -15
-9 0 -37 -12 -64 -27 -48 -25 -51 -26 -117 -14 -120 21 -127 23 -140 40 -11
14 -14 14 -22 1 -7 -12 -14 -12 -43 -2 -18 7 -42 12 -53 12 -17 0 -19 8 -19
82 0 59 -4 83 -14 86 -10 3 -12 -7 -10 -44 2 -44 -12 -104 -25 -104 -31 0 -50
202 -21 214 9 3 15 0 15 -9 0 -7 10 -15 23 -17 30 -4 67 13 67 32 0 9 9 16 19
16 11 0 17 -4 15 -8z m673 -395 c0 -15 -6 -32 -14 -39 -11 -7 -12 -13 -5 -18
6 -3 18 4 26 16 12 17 16 19 16 6 0 -11 6 -15 20 -11 11 3 20 12 20 19 0 8 8
14 18 14 12 0 18 -9 19 -31 1 -17 9 -44 18 -61 8 -17 15 -53 15 -80 0 -26 5
-48 10 -48 6 0 10 5 10 10 0 6 6 10 14 10 16 0 23 -19 25 -70 1 -44 18 -152
38 -250 8 -41 19 -94 24 -118 5 -23 13 -51 19 -61 5 -11 10 -27 10 -37 0 -9
20 -58 45 -109 24 -51 46 -107 47 -124 1 -18 8 -37 15 -43 7 -6 13 -15 13 -20
0 -5 7 -16 15 -24 8 -9 15 -29 15 -45 0 -19 -5 -29 -15 -29 -8 0 -15 5 -15 10
0 6 -7 10 -16 10 -19 0 -43 28 -44 51 0 9 -9 24 -20 34 -10 9 -25 43 -31 74
-7 31 -18 63 -25 71 -7 8 -14 29 -17 45 -3 17 -3 4 -2 -27 2 -32 10 -67 19
-80 9 -12 16 -32 16 -43 0 -34 31 -116 59 -159 14 -21 31 -47 37 -58 6 -10 20
-29 31 -41 11 -12 29 -38 39 -57 10 -19 21 -37 25 -40 3 -3 20 -26 38 -51 28
-39 31 -50 22 -68 -6 -11 -9 -32 -5 -45 5 -21 3 -24 -15 -19 -16 4 -21 1 -21
-16 0 -11 4 -21 8 -21 9 0 52 -84 52 -103 1 -6 14 -28 30 -47 20 -22 30 -45
30 -67 0 -17 4 -35 10 -38 21 -13 80 -153 80 -191 0 -27 7 -45 23 -60 12 -12
39 -50 60 -85 21 -35 44 -73 50 -84 7 -11 20 -32 30 -47 9 -14 17 -32 17 -39
0 -6 17 -27 39 -45 21 -19 42 -46 46 -61 3 -15 15 -33 26 -41 10 -7 19 -19 19
-27 0 -7 12 -36 26 -63 15 -29 24 -61 22 -78 l-3 -29 -18 27 c-10 15 -20 33
-21 40 -1 7 -12 29 -24 48 -12 19 -22 38 -22 41 0 4 -9 9 -19 12 -14 3 -18 11
-14 26 3 12 1 21 -5 21 -20 0 -30 -27 -35 -88 -2 -36 -9 -67 -17 -72 -9 -5 -9
-9 -1 -15 6 -3 11 -21 10 -38 -1 -18 8 -57 20 -87 26 -67 26 -67 0 -75 -21 -7
-39 8 -60 50 -5 11 -23 40 -39 65 -16 25 -34 54 -39 65 -5 12 -16 27 -25 34
-9 7 -16 19 -16 26 0 7 -12 25 -27 41 -62 66 -82 137 -64 226 9 41 9 66 1 99
-6 24 -13 51 -14 59 -7 37 -18 78 -31 110 -7 19 -17 60 -23 90 -15 80 -29 110
-51 110 -41 0 -176 -71 -213 -113 -21 -22 -38 -45 -38 -49 0 -14 -52 -88 -61
-88 -16 0 -9 22 13 41 11 11 18 19 15 19 -11 0 16 62 37 84 51 54 128 104 185
122 61 18 78 37 41 47 -11 3 -38 -7 -65 -24 -26 -16 -50 -27 -55 -24 -5 3 -23
-3 -42 -14 -20 -11 -40 -16 -52 -12 -17 7 -16 9 8 24 14 10 26 24 26 32 0 9
10 15 24 15 29 0 121 47 120 61 -3 25 -5 29 -24 39 -11 6 -31 8 -45 4 -21 -5
-25 -12 -25 -40 0 -19 -4 -34 -9 -34 -6 0 -8 9 -6 20 8 41 -39 35 -49 -6 -5
-19 -12 -24 -34 -22 -15 1 -33 -1 -40 -6 -18 -11 -15 -75 3 -82 19 -8 19 -28
0 -44 -12 -10 -15 -10 -15 4 0 9 -6 16 -14 16 -8 0 -16 5 -18 12 -7 19 -28 -1
-28 -27 0 -12 -7 -25 -15 -29 -9 -3 -15 -18 -15 -36 0 -23 -4 -30 -19 -30 -11
0 -23 5 -26 10 -10 16 -71 12 -85 -5 -18 -22 -52 -15 -66 13 -6 13 -17 29 -23
35 -16 16 -14 37 4 37 19 0 19 4 -1 46 -17 35 -34 45 -34 19 0 -8 4 -15 10
-15 6 0 8 -23 5 -57 -2 -32 -4 -63 -5 -69 0 -7 -9 -14 -21 -17 -18 -5 -20 -2
-15 19 4 16 0 30 -14 44 -14 14 -20 16 -20 6 0 -16 -48 -28 -56 -14 -3 5 0 15
6 23 9 11 7 19 -12 38 -31 33 -48 63 -48 87 0 11 -7 20 -15 20 -8 0 -15 -4
-15 -10 0 -5 -7 -10 -15 -10 -8 0 -15 5 -15 10 0 6 -7 10 -15 10 -10 0 -15 10
-15 28 0 15 -6 34 -12 40 -7 7 -13 34 -14 60 -3 85 -4 92 -17 92 -19 0 -49 39
-52 69 -2 14 -7 38 -11 53 -9 40 3 78 25 78 11 0 22 -6 24 -12 3 -7 6 1 6 19
1 34 -16 54 -29 33 -4 -7 -7 0 -7 17 -1 128 -7 208 -18 229 -7 14 -11 45 -10
69 3 39 1 45 -16 45 -13 0 -19 7 -19 21 0 11 3 18 8 15 4 -2 16 2 27 10 18 14
18 14 0 28 -15 11 -17 22 -12 65 5 45 4 52 -9 47 -9 -3 -17 1 -21 11 -4 9 -1
19 5 21 15 5 4 61 -17 85 -12 15 -13 18 -1 15 20 -4 24 27 6 45 -11 10 -13 26
-9 51 3 22 1 42 -7 51 -9 11 -9 22 0 52 18 55 29 66 48 51 13 -11 15 -10 9 5
-3 9 -2 17 3 17 6 0 10 6 10 14 0 8 7 16 15 20 23 9 18 41 -10 56 -32 17 -32
25 5 42 17 7 30 16 30 19 0 4 17 10 38 14 20 4 42 10 47 14 6 4 21 8 34 9 22
1 90 57 91 75 0 13 32 42 68 63 17 10 35 26 38 36 5 17 15 22 41 19 6 -1 14 3
18 9 3 5 21 10 38 10 28 0 32 -4 34 -27z"/>
<path d="M6026 9575 c-4 -17 1 -37 17 -62 12 -21 29 -51 37 -66 15 -30 74 -87
90 -87 6 0 10 12 10 28 0 15 7 41 16 57 9 17 17 43 18 58 1 16 6 32 12 35 5 4
11 19 12 35 l3 27 -104 0 c-103 0 -105 0 -111 -25z"/>
<path d="M6698 9587 c-7 -7 -21 -16 -30 -20 -9 -3 -29 -24 -43 -47 -14 -22
-32 -40 -40 -40 -8 0 -16 -6 -17 -12 0 -7 -2 -17 -2 -23 -1 -5 -13 -22 -26
-36 -14 -14 -33 -37 -42 -50 -30 -40 -19 -81 12 -44 7 8 17 15 22 15 6 0 23 9
39 21 16 11 29 17 29 14 0 -4 11 0 25 9 13 9 35 16 48 16 13 0 27 3 30 7 4 4
26 7 50 8 54 3 87 13 87 28 0 7 4 6 10 -3 6 -9 10 -11 10 -3 0 7 6 10 14 7 14
-5 85 22 96 36 3 4 27 10 54 13 27 4 62 14 79 22 16 8 44 17 63 21 31 6 34 9
34 40 l0 34 -244 0 c-188 0 -248 -3 -258 -13z"/>
<path d="M4950 9270 c0 -6 -13 -10 -29 -10 -16 0 -34 -6 -41 -14 -6 -8 -17
-13 -24 -10 -7 3 -19 -2 -26 -11 -7 -8 -23 -15 -37 -15 -13 0 -41 -9 -61 -20
-20 -10 -73 -36 -117 -56 -44 -20 -81 -41 -83 -45 -2 -5 -13 -4 -25 2 -18 10
-24 8 -44 -17 -29 -37 -25 -50 18 -46 19 2 55 3 82 3 26 -1 47 4 47 9 0 10 54
3 81 -11 10 -5 30 -1 53 11 25 12 55 18 91 17 36 -1 56 2 60 11 6 17 25 15 25
-3 0 -20 16 -19 24 1 3 8 11 12 16 9 6 -4 17 -1 25 5 8 7 24 10 36 7 15 -4 18
-2 10 7 -17 20 -4 24 51 14 37 -7 58 -6 74 3 14 7 40 10 69 6 58 -8 59 7 5 59
-23 22 -39 46 -37 55 3 12 -2 15 -18 11 -12 -2 -28 3 -36 10 -17 17 -189 33
-189 18z"/>
<path d="M4057 8774 c-7 -7 3 -75 13 -89 4 -5 11 -25 15 -42 3 -18 11 -33 16
-33 5 0 9 -9 9 -20 0 -21 45 -100 56 -100 4 0 4 17 1 38 -3 20 -11 73 -17 117
-12 85 -31 119 -62 109 -13 -4 -16 -1 -12 10 6 16 -7 22 -19 10z"/>
<path d="M5477 8033 c-4 -3 -22 -6 -41 -5 -30 1 -34 -2 -38 -29 -5 -34 13 -59
43 -59 10 0 19 -4 19 -10 0 -15 21 -12 42 7 11 9 18 11 18 5 0 -7 7 -12 15
-12 8 0 15 5 15 11 0 6 9 9 20 6 11 -3 23 -1 26 4 3 5 14 9 25 9 10 0 19 5 19
12 0 6 7 4 18 -5 19 -18 32 -14 32 10 0 7 -8 13 -18 13 -10 0 -22 3 -25 7 -25
24 -154 52 -170 36z"/>
<path d="M6924 7648 c-15 -31 -18 -33 -66 -31 -28 1 -59 -2 -69 -7 -13 -7 -25
-7 -39 2 -17 11 -22 11 -29 -1 -7 -11 -9 -11 -13 0 -5 12 -9 12 -28 1 -13 -8
-33 -11 -51 -7 -17 4 -36 2 -44 -5 -9 -7 -15 -8 -20 0 -8 13 -52 13 -60 -1 -4
-5 -32 -10 -63 -9 -32 0 -91 -1 -133 -3 -75 -4 -76 -4 -71 21 l5 24 -27 -27
c-21 -21 -29 -24 -46 -15 -14 7 -20 7 -20 0 0 -5 7 -10 16 -10 8 0 12 -4 9
-10 -9 -15 -52 -12 -69 5 -12 13 -19 13 -42 3 -22 -10 -28 -10 -32 0 -2 6 -8
12 -13 12 -4 0 -6 -6 -3 -13 3 -8 -5 -13 -21 -15 -14 -1 -25 2 -25 7 0 6 -15
5 -37 -1 -24 -7 -43 -6 -59 1 -17 7 -24 7 -27 -3 -4 -10 -22 -13 -63 -11 -36
2 -53 0 -44 -5 22 -14 11 -17 -69 -24 -41 -3 -80 -11 -87 -17 -7 -6 -42 -11
-78 -11 -39 0 -66 -5 -66 -11 0 -6 -3 -8 -6 -5 -3 4 -21 0 -40 -8 -19 -8 -34
-11 -34 -8 0 4 -7 0 -16 -7 -19 -16 -94 -23 -94 -10 0 5 8 12 18 14 10 3 6 5
-10 6 -16 0 -28 6 -28 11 0 6 -12 16 -27 23 -16 6 -31 16 -35 22 -4 5 -30 10
-57 11 -55 1 -69 -12 -50 -48 6 -11 13 -32 15 -46 7 -36 43 -89 71 -101 12 -6
29 -22 39 -36 11 -17 25 -25 44 -25 16 0 30 -5 32 -11 6 -17 48 -1 48 18 0 18
59 -55 60 -73 0 -6 7 -17 15 -24 8 -7 15 -21 15 -31 0 -11 -7 -19 -15 -19 -19
0 -19 6 10 -65 13 -33 25 -78 25 -100 0 -30 3 -36 10 -25 9 13 11 13 20 0 5
-8 10 -23 10 -32 0 -10 8 -22 19 -27 17 -10 31 -42 36 -83 1 -10 9 -26 19 -36
9 -11 14 -26 11 -34 -4 -10 4 -24 22 -38 15 -12 28 -29 28 -38 0 -8 14 -20 30
-25 42 -14 57 -28 52 -49 -3 -10 0 -19 6 -20 7 0 17 -2 22 -3 6 -2 16 -3 23
-4 7 0 11 -4 9 -8 -2 -5 4 -16 15 -25 17 -17 18 -17 18 -1 0 13 3 14 12 5 7
-7 20 -12 29 -12 10 0 21 -9 24 -20 5 -16 16 -20 53 -22 74 -2 81 -3 88 -11
10 -10 54 -9 54 1 0 5 42 9 92 10 73 1 96 5 105 18 8 12 20 14 42 9 27 -6 32
-3 41 19 8 21 16 26 45 26 23 0 35 5 35 14 0 16 42 46 65 46 9 0 18 7 21 15 4
8 11 15 18 15 6 0 23 13 36 28 14 15 34 34 46 42 12 8 24 25 28 38 8 23 -3 29
-21 11 -8 -8 -13 -8 -18 0 -3 6 1 18 10 27 15 15 35 56 49 102 6 19 3 22 -17
22 -14 0 -30 -7 -37 -15 -7 -8 -27 -15 -45 -15 -17 0 -35 -3 -39 -7 -4 -4 -25
-6 -46 -4 -31 2 -40 -1 -40 -13 0 -12 -10 -16 -42 -16 -23 0 -38 -3 -35 -7 4
-3 2 -12 -4 -20 -13 -15 -43 -18 -34 -3 10 15 -23 12 -49 -6 -16 -10 -26 -12
-31 -5 -3 6 -1 11 4 11 6 0 11 7 11 16 0 14 -8 16 -52 10 -30 -4 -57 -14 -64
-24 -6 -9 -25 -17 -40 -18 -16 -1 -36 -2 -44 -3 -9 0 -16 -10 -17 -21 -1 -11
2 -18 7 -15 14 8 24 -15 11 -28 -5 -5 -43 -12 -83 -14 l-73 -3 29 26 c22 19
35 24 56 19 16 -3 31 -2 34 4 8 12 -32 41 -56 41 -24 0 -24 37 0 44 9 3 -1 3
-23 0 -22 -3 -54 -17 -72 -30 -17 -13 -37 -24 -44 -24 -16 0 -99 53 -99 63 0
5 -4 6 -9 3 -5 -3 -12 6 -16 21 -4 17 -2 29 7 34 17 11 45 11 52 0 3 -5 15
-11 26 -14 11 -3 18 -1 14 4 -3 5 -1 9 4 9 5 0 12 -9 15 -20 4 -15 14 -20 36
-20 22 0 29 4 25 14 -6 17 29 27 67 19 18 -3 29 -1 29 6 0 6 11 11 25 11 18 0
25 5 25 19 0 11 9 21 22 25 18 4 20 8 10 18 -10 10 -14 10 -21 0 -16 -27 -211
27 -211 58 0 6 -7 10 -15 10 -8 0 -15 4 -15 10 0 5 -14 23 -31 39 -23 23 -32
40 -33 70 -1 21 -8 46 -15 55 -16 19 -79 32 -92 19 -7 -7 -21 -1 -41 18 l-31
28 17 35 c17 36 36 48 36 22 0 -9 7 -12 20 -9 11 3 20 13 20 22 0 34 30 61 66
61 21 0 33 -4 29 -10 -11 -17 31 -11 56 9 44 34 96 42 188 29 78 -12 84 -11
97 7 18 25 78 45 135 45 40 0 49 -4 64 -27 18 -27 18 -27 26 -5 11 29 89 67
120 59 14 -4 35 -16 48 -28 21 -20 25 -20 35 -7 13 17 69 48 88 48 17 0 46
-33 49 -57 5 -38 -23 -132 -47 -158 l-25 -27 -35 31 c-34 30 -54 39 -54 24 0
-5 -21 -21 -46 -37 -37 -24 -53 -28 -90 -23 -34 3 -44 1 -44 -10 0 -8 -11 -24
-25 -37 -22 -20 -23 -26 -12 -49 14 -30 29 -34 47 -12 18 21 56 18 73 -6 l15
-20 20 22 c12 12 24 36 28 53 3 17 11 37 16 44 12 14 48 16 48 3 0 -5 9 -13
20 -16 29 -9 26 -56 -5 -85 -13 -12 -22 -27 -19 -31 3 -5 -2 -9 -10 -9 -9 0
-16 -5 -16 -10 0 -6 -12 -16 -27 -23 -38 -17 -61 -41 -65 -69 -2 -17 -10 -24
-30 -26 -22 -3 -28 -8 -28 -29 0 -21 4 -24 22 -20 12 3 29 2 39 -4 14 -7 19
-5 24 10 3 11 12 22 21 25 8 3 19 17 24 31 5 14 16 25 24 25 7 0 16 7 20 15 3
8 16 15 28 15 13 0 29 9 36 21 11 17 11 20 0 14 -7 -4 -1 4 14 19 15 14 32 26
38 26 5 0 10 3 10 8 0 13 54 32 93 32 26 0 36 -4 31 -11 -4 -7 -2 -9 7 -5 8 3
22 9 32 12 10 4 16 13 13 20 -3 8 3 18 13 23 10 6 24 24 31 41 9 23 15 28 21
18 6 -9 9 -8 9 7 0 11 14 34 30 52 17 18 30 36 30 41 0 5 7 15 16 23 13 10 17
10 25 -2 8 -11 9 -10 7 6 -2 15 5 20 41 27 42 7 81 35 81 58 0 6 5 8 10 5 18
-11 23 25 6 50 -9 13 -16 36 -16 51 0 22 -3 24 -14 15 -12 -10 -17 -8 -26 8
-6 12 -17 21 -25 21 -8 0 -15 5 -15 10 0 6 -14 10 -30 10 -24 0 -33 -6 -46
-32z"/>
<path d="M2716 306 c-3 -14 -14 -27 -24 -30 -11 -4 -25 -17 -32 -31 -16 -30
-21 -145 -7 -163 7 -9 6 -20 -2 -38 -6 -14 -11 -29 -11 -35 0 -5 45 -9 111 -8
95 1 110 3 105 16 -4 9 -2 21 4 28 12 15 -1 58 -27 83 -13 13 -17 14 -21 4 -5
-17 -30 28 -36 66 -2 15 -5 29 -6 32 -1 3 -2 26 -2 53 0 42 -2 47 -23 47 -16
0 -25 -7 -29 -24z"/>
</g>
</svg>
